<?xml version="1.0" encoding="UTF-8" standalone="yes"?>
<!DOCTYPE svg PUBLIC "-//W3C//DTD SVG 1.1//EN" "http://www.w3.org/Graphics/SVG/1.1/DTD/svg11.dtd">

<svg width="634" height="150" viewBox="0 0 634 150" xmlns="http://www.w3.org/2000/svg" xmlns:xlink="http://www.w3.org/1999/xlink" version="1.1" baseProfile="full">
    <g transform="scale(1.000000,-1.000000) translate(0,-150)">
        <path d="M 6.752872 83.225392 L 6.752872 73.462942 L 1.000000 73.462942 L 1.000000 83.225392 Z M 6.752872 55.507009 L 6.752872 2.045977 L 1.000000 2.045977 L 1.000000 55.507009 Z M 68.523608 83.225392 L 68.523608 2.045977 L 62.770736 2.045977 L 62.770736 6.229884 Q 55.448899 1.000000 46.964866 1.000000 Q 35.575341 1.000000 27.759571 9.048210 Q 19.943800 17.096419 19.943800 28.834603 Q 19.943800 40.747115 27.643351 48.650050 Q 35.342902 56.552985 46.964866 56.552985 Q 54.344812 56.552985 62.770736 52.252859 L 62.770736 83.225392 Z M 62.770736 11.459767 L 62.770736 45.976999 Q 55.100240 50.974443 47.197305 50.974443 Q 37.957844 50.974443 31.972533 44.843857 Q 25.987221 38.713271 25.987221 29.183261 Q 25.987221 19.478922 32.379301 13.028732 Q 38.771381 6.578542 48.359501 6.578542 Q 55.797558 6.578542 62.770736 11.459767 Z M 128.667269 30.752226 L 86.537651 30.752226 Q 86.363322 29.357591 86.363322 27.962955 Q 86.363322 19.014043 92.755402 12.796293 Q 99.147481 6.578542 107.863954 6.578542 Q 118.033172 6.578542 127.737512 14.539587 L 127.737512 8.089398 Q 118.556160 1.000000 107.166636 1.000000 Q 95.602783 1.000000 88.048506 9.019155 Q 80.494230 17.038310 80.494230 29.415701 Q 80.494230 41.153884 87.467408 48.853435 Q 94.440586 56.552985 105.016573 56.552985 Q 114.953352 56.552985 121.810310 49.608862 Q 128.667269 42.664739 128.667269 30.752226 Z M 87.293079 35.342902 L 121.926530 35.342902 Q 118.904819 50.974443 105.016573 50.974443 Q 98.450164 50.974443 93.656104 46.877701 Q 88.862044 42.780959 87.293079 35.342902 Z M 140.114903 5.009577 L 140.114903 83.225392 L 145.809665 83.225392 L 145.809665 47.836513 Q 154.351808 56.552985 165.102124 56.552985 Q 175.561891 56.552985 182.244520 49.260203 Q 188.927149 41.967421 188.927149 30.461677 Q 188.927149 17.096419 180.762720 9.048210 Q 172.598291 1.000000 159.058703 1.000000 Q 150.167901 1.000000 140.114903 5.009577 Z M 145.809665 41.444433 L 145.809665 9.077265 Q 152.434184 6.578542 158.942483 6.578542 Q 169.286031 6.578542 176.055825 13.232117 Q 182.825618 19.885691 182.825618 30.113018 Q 182.825618 39.584919 177.595735 45.686450 Q 172.365851 51.787980 164.404806 51.787980 Q 154.874796 51.787980 145.809665 41.444433 Z M 237.797506 50.219015 L 234.485246 44.872912 Q 227.802617 50.974443 223.734930 50.974443 Q 215.715775 50.974443 206.592534 35.633451 L 206.592534 2.045977 L 200.897772 2.045977 L 200.897772 55.507009 L 206.592534 55.507009 L 206.592534 41.444433 L 206.824973 41.444433 Q 216.413093 56.552985 225.536334 56.552985 Q 230.766218 56.552985 237.797506 50.219015 Z M 265.283449 56.552985 Q 276.905413 56.552985 284.663073 48.591940 Q 292.420734 40.630895 292.420734 28.718383 Q 292.420734 16.863980 284.663073 8.931990 Q 276.905413 1.000000 265.283449 1.000000 Q 253.661486 1.000000 245.845715 8.931990 Q 238.029945 16.863980 238.029945 28.718383 Q 238.029945 40.630895 245.845715 48.591940 Q 253.661486 56.552985 265.283449 56.552985 Z M 265.283449 6.578542 Q 274.290471 6.578542 280.333892 12.883458 Q 286.377313 19.188373 286.377313 28.718383 Q 286.377313 38.190283 280.304837 44.582363 Q 274.232361 50.974443 265.283449 50.974443 Q 256.218318 50.974443 250.145842 44.640473 Q 244.073366 38.306503 244.073366 28.718383 Q 244.073366 19.188373 250.145842 12.883458 Q 256.218318 6.578542 265.283449 6.578542 Z M 381.793633 55.507009 L 358.724035 1.000000 L 355.992874 1.000000 L 339.547796 44.408034 L 322.986498 1.000000 L 320.371556 1.000000 L 297.534398 55.507009 L 303.112940 55.507009 L 321.359423 11.924646 L 338.095050 55.507009 L 341.232980 55.507009 L 357.503729 11.924646 L 376.098871 55.507009 Z M 418.577147 52.020420 L 418.577147 45.860779 Q 410.441773 51.323102 403.933473 51.323102 Q 399.110359 51.323102 395.798099 48.708160 Q 392.485839 46.093218 392.485839 42.257970 Q 392.485839 39.526809 394.490628 37.231471 Q 396.495417 34.936133 405.589603 31.449544 Q 414.683790 27.962955 417.473061 24.185817 Q 420.262332 20.408679 420.262332 15.759894 Q 420.262332 9.542143 415.206778 5.271072 Q 410.151224 1.000000 402.713167 1.000000 Q 394.635903 1.000000 386.674858 5.881225 L 386.674858 11.459767 Q 396.146758 6.578542 403.468595 6.578542 Q 408.407929 6.578542 411.574914 9.193484 Q 414.741899 11.808426 414.741899 15.876113 Q 414.741899 18.665384 412.679001 21.018832 Q 410.616102 23.372280 401.521916 26.975088 Q 392.427730 30.577897 389.725623 34.093541 Q 387.023517 37.609185 387.023517 41.909311 Q 387.023517 48.010842 392.050016 52.281914 Q 397.076515 56.552985 404.282132 56.552985 Q 410.848542 56.552985 418.577147 52.020420 Z M 476.861294 30.752226 L 434.731677 30.752226 Q 434.557347 29.357591 434.557347 27.962955 Q 434.557347 19.014043 440.949427 12.796293 Q 447.341507 6.578542 456.057979 6.578542 Q 466.227198 6.578542 475.931537 14.539587 L 475.931537 8.089398 Q 466.750186 1.000000 455.360662 1.000000 Q 443.796808 1.000000 436.242532 9.019155 Q 428.688256 17.038310 428.688256 29.415701 Q 428.688256 41.153884 435.661434 48.853435 Q 442.634612 56.552985 453.210598 56.552985 Q 463.147377 56.552985 470.004336 49.608862 Q 476.861294 42.664739 476.861294 30.752226 Z M 435.487104 35.342902 L 470.120555 35.342902 Q 467.098845 50.974443 453.210598 50.974443 Q 446.644189 50.974443 441.850129 46.877701 Q 437.056069 42.780959 435.487104 35.342902 Z M 525.324882 50.219015 L 522.012622 44.872912 Q 515.329993 50.974443 511.262306 50.974443 Q 503.243151 50.974443 494.119910 35.633451 L 494.119910 2.045977 L 488.425148 2.045977 L 488.425148 55.507009 L 494.119910 55.507009 L 494.119910 41.444433 L 494.352349 41.444433 Q 503.940469 56.552985 513.063710 56.552985 Q 518.293594 56.552985 525.324882 50.219015 Z" transform="scale(1.000000,1.000000) translate(100.926854,32.364317)" fill="#000000" opacity="1.000000"></path>
        <path d="M 6.694749 38.480807 L 6.917049 38.835707 L 7.366649 39.528807 L 7.822649 40.199607 L 8.285149 40.848007 L 8.754149 41.474007 L 9.229549 42.077707 L 9.711449 42.659007 L 10.199849 43.218007 L 10.694649 43.754607 L 11.195949 44.268907 L 11.703749 44.760807 L 12.217949 45.230307 L 12.738749 45.677507 L 13.265949 46.102307 L 13.799549 46.504707 L 14.339649 46.884807 L 14.886249 47.242607 L 15.439349 47.578007 L 15.998849 47.891007 L 16.564849 48.181607 L 17.137349 48.449907 L 17.716249 48.695907 L 18.301749 48.919507 L 18.893549 49.120707 L 19.491949 49.299607 L 20.096749 49.456107 L 20.708049 49.590207 L 21.325849 49.702007 L 21.950049 49.791507 L 22.580749 49.858507 L 23.217849 49.903307 L 23.861549 49.925607 L 24.185749 49.928407 L 24.636249 49.923907 L 25.515749 49.887807 L 26.367049 49.815607 L 27.189849 49.707307 L 27.984349 49.563007 L 28.750449 49.382507 L 29.488149 49.166007 L 30.197449 48.913307 L 30.878449 48.624607 L 31.531049 48.299807 L 32.155249 47.938907 L 32.751149 47.541807 L 33.318649 47.108707 L 33.857749 46.639607 L 34.368449 46.134307 L 34.850849 45.592907 L 35.304849 45.015407 L 35.730449 44.401907 L 36.127649 43.752207 L 36.496549 43.066507 L 36.836949 42.344707 L 37.149149 41.586707 L 37.432849 40.792707 L 37.688249 39.962607 L 37.915249 39.096407 L 38.113849 38.194107 L 38.284049 37.255707 L 38.425949 36.281307 L 38.539449 35.270707 L 38.624549 34.224007 L 38.681349 33.141307 L 38.709649 32.022407 L 38.713249 31.449507 L 38.713249 0.999907 L 44.407949 0.999907 L 44.407949 33.715807 L 44.402749 34.347107 L 44.360449 35.584207 L 44.276049 36.787207 L 44.149349 37.956307 L 43.980549 39.091207 L 43.769449 40.192107 L 43.516049 41.259007 L 43.220549 42.291807 L 42.882749 43.290607 L 42.502749 44.255307 L 42.080549 45.185907 L 41.616149 46.082507 L 41.109549 46.945107 L 40.560649 47.773607 L 39.969549 48.568107 L 39.336249 49.328507 L 39.003749 49.696007 L 38.662449 50.053507 L 37.958349 50.734507 L 37.225549 51.370007 L 36.464249 51.960207 L 35.674349 52.505007 L 34.855749 53.004407 L 34.008649 53.458407 L 33.132949 53.866907 L 32.228549 54.230107 L 31.295649 54.547907 L 30.334149 54.820307 L 29.343949 55.047307 L 28.325249 55.228907 L 27.277949 55.365107 L 26.201949 55.455907 L 25.097449 55.501307 L 24.534449 55.507007 L 24.194049 55.504407 L 23.519549 55.484207 L 22.853349 55.443807 L 22.195449 55.383207 L 21.545749 55.302407 L 20.904349 55.201407 L 20.271349 55.080207 L 19.646549 54.938807 L 19.030049 54.777107 L 18.421749 54.595307 L 17.821849 54.393307 L 17.230149 54.171107 L 16.646849 53.928707 L 16.071749 53.666007 L 15.504949 53.383207 L 14.946449 53.080207 L 14.396249 52.756907 L 13.854249 52.413507 L 13.320649 52.049807 L 12.795249 51.666007 L 12.278149 51.262007 L 11.769349 50.837707 L 11.268849 50.393307 L 10.776649 49.928607 L 10.292649 49.443807 L 9.816949 48.938707 L 9.349649 48.413407 L 8.890549 47.868007 L 8.439749 47.302307 L 7.997249 46.716507 L 7.562949 46.110407 L 7.137049 45.484107 L 6.927149 45.163407 L 6.694749 45.163407 L 6.694749 82.179407 L 0.999949 82.179407 L 0.999949 0.999907 L 6.694749 0.999907 Z" transform="scale(1.000000,1.000000) translate(48.262551,33.410293)" fill="#19773f" opacity="1.000000"></path>
        <path d="M 65.849940 1.020607 L 67.471440 1.082207 L 69.082340 1.184307 L 70.681940 1.326307 L 72.269940 1.507907 L 73.845740 1.728407 L 75.408940 1.987307 L 76.958940 2.284307 L 78.495340 2.618807 L 80.017540 2.990207 L 81.525040 3.398207 L 83.017440 3.842107 L 84.494240 4.321607 L 85.954840 4.836007 L 87.398840 5.385007 L 88.825640 5.968007 L 90.234940 6.584407 L 91.626040 7.234007 L 94.351840 8.630107 L 96.999240 10.152307 L 99.564240 11.796607 L 102.042740 13.559207 L 104.430940 15.435907 L 106.724840 17.422907 L 108.920340 19.516207 L 111.013640 21.711707 L 113.000540 24.005507 L 114.877340 26.393707 L 116.109540 28.126507 L 115.953940 28.302307 L 114.918240 29.591007 L 114.806640 29.744607 L 113.274640 27.590407 L 111.457240 25.277707 L 109.533140 23.056407 L 107.506140 20.930407 L 106.931340 20.382407 L 106.931340 17.628507 L 103.908340 17.628507 L 103.158740 16.979207 L 100.846140 15.161907 L 98.446040 13.455107 L 95.962140 11.862707 L 93.398540 10.388707 L 90.758940 9.036707 L 88.047140 7.810807 L 85.267140 6.714707 L 82.422740 5.752207 L 80.977540 5.322307 L 79.517640 4.927307 L 78.043640 4.567607 L 76.555840 4.243707 L 75.054940 3.956107 L 73.541240 3.705307 L 72.015240 3.491807 L 70.477440 3.316007 L 68.928440 3.178407 L 67.368540 3.079607 L 65.798340 3.019907 L 64.218240 2.999907 L 62.638140 3.019907 L 61.067940 3.079607 L 59.508140 3.178407 L 57.959040 3.316007 L 56.421240 3.491807 L 54.895340 3.705307 L 53.381640 3.956107 L 51.880640 4.243707 L 50.392840 4.567607 L 48.918840 4.927307 L 47.459040 5.322307 L 46.013840 5.752207 L 43.169340 6.714707 L 40.389340 7.810807 L 37.677640 9.036707 L 35.037940 10.388707 L 32.474340 11.862707 L 29.990540 13.455107 L 27.590340 15.161907 L 25.277740 16.979207 L 23.056440 18.903307 L 20.930340 20.930407 L 18.903340 23.056407 L 16.979240 25.277707 L 15.161840 27.590407 L 13.455040 29.990507 L 11.862740 32.474307 L 10.388640 35.038007 L 9.036740 37.677607 L 7.810740 40.389307 L 6.714640 43.169307 L 5.752240 46.013807 L 5.322340 47.459007 L 4.927240 48.918807 L 4.567540 50.392907 L 4.243640 51.880607 L 3.956140 53.381607 L 3.705340 54.895307 L 3.491840 56.421307 L 3.316040 57.959007 L 3.178440 59.508107 L 3.079640 61.068007 L 3.019940 62.638207 L 2.999940 64.218307 L 3.019940 65.798307 L 3.079640 67.368507 L 3.178440 68.928407 L 3.316040 70.477507 L 3.491840 72.015207 L 3.705340 73.541207 L 3.956140 75.054907 L 4.243640 76.555907 L 4.567540 78.043607 L 4.927240 79.517707 L 5.322340 80.977507 L 5.752240 82.422707 L 6.714640 85.267207 L 7.810740 88.047207 L 9.036740 90.758907 L 10.388640 93.398507 L 11.862740 95.962207 L 13.455040 98.446007 L 15.161840 100.846107 L 16.979240 103.158807 L 18.903340 105.380107 L 20.930340 107.506107 L 23.056440 109.533207 L 25.277740 111.457307 L 27.590340 113.274607 L 29.990540 114.981407 L 32.474340 116.573807 L 35.037940 118.047807 L 37.677640 119.399807 L 40.389340 120.625707 L 43.169340 121.721807 L 46.013840 122.684307 L 47.459040 123.114207 L 48.918840 123.509207 L 50.392840 123.868907 L 51.880640 124.192807 L 53.381640 124.480407 L 54.895340 124.731207 L 56.421240 124.944707 L 57.959040 125.120507 L 59.508140 125.258107 L 61.067940 125.356907 L 62.638140 125.416607 L 64.218240 125.436607 L 65.798340 125.416607 L 67.368540 125.356907 L 68.928440 125.258107 L 70.477440 125.120507 L 72.015240 124.944707 L 73.541240 124.731207 L 75.054940 124.480407 L 76.555840 124.192807 L 78.043640 123.868907 L 79.517640 123.509207 L 80.977540 123.114207 L 82.422740 122.684307 L 85.267140 121.721807 L 88.047140 120.625707 L 90.758940 119.399807 L 93.398540 118.047807 L 95.962140 116.573807 L 98.446040 114.981407 L 100.846140 113.274607 L 103.158740 111.457307 L 103.908440 110.807907 L 106.931340 110.807907 L 106.931340 108.054107 L 107.506140 107.506107 L 109.533140 105.380107 L 111.457240 103.158807 L 113.274640 100.846107 L 114.981440 98.446007 L 116.573740 95.962207 L 118.047840 93.398507 L 119.399740 90.758907 L 120.625740 88.047207 L 121.721840 85.267207 L 122.684340 82.422707 L 123.114240 80.977507 L 123.509240 79.517707 L 123.559940 79.309907 L 124.594140 79.939407 L 125.356340 80.349907 L 125.038340 81.525007 L 124.594440 83.017407 L 124.114940 84.494207 L 123.600540 85.954807 L 123.051540 87.398807 L 122.468540 88.825707 L 121.852040 90.234907 L 121.202540 91.626007 L 119.806440 94.351807 L 118.284240 96.999207 L 116.639840 99.564207 L 114.877340 102.042807 L 113.000540 104.431007 L 111.013640 106.724807 L 108.920340 108.920307 L 106.724840 111.013607 L 104.430940 113.000607 L 102.042740 114.877307 L 99.564240 116.639907 L 96.999240 118.284207 L 94.351840 119.806407 L 91.626040 121.202507 L 90.234940 121.852107 L 88.825640 122.468507 L 87.398840 123.051507 L 85.954840 123.600507 L 84.494240 124.114907 L 83.017440 124.594407 L 81.525040 125.038307 L 80.017540 125.446307 L 78.495340 125.817707 L 76.958940 126.152207 L 75.408940 126.449207 L 73.845740 126.708107 L 72.269940 126.928607 L 70.681940 127.110207 L 69.082340 127.252207 L 67.471440 127.354307 L 65.849940 127.415907 L 64.218240 127.436607 L 62.586540 127.415907 L 60.965040 127.354307 L 59.354240 127.252207 L 57.754540 127.110207 L 56.166540 126.928607 L 54.590740 126.708107 L 53.027540 126.449207 L 51.477540 126.152207 L 49.941240 125.817707 L 48.419040 125.446307 L 46.911440 125.038307 L 45.419040 124.594407 L 43.942340 124.114907 L 42.481640 123.600507 L 41.037740 123.051507 L 39.610840 122.468507 L 38.201640 121.852107 L 36.810540 121.202507 L 34.084640 119.806407 L 31.437240 118.284207 L 28.872340 116.639907 L 26.393740 114.877307 L 24.005540 113.000607 L 21.711740 111.013607 L 19.516140 108.920307 L 17.422940 106.724807 L 15.435940 104.431007 L 13.559140 102.042807 L 11.796640 99.564207 L 10.152240 96.999207 L 8.630040 94.351807 L 7.233940 91.626007 L 6.584440 90.234907 L 5.967940 88.825707 L 5.384940 87.398807 L 4.836040 85.954807 L 4.321540 84.494207 L 3.842140 83.017407 L 3.398140 81.525007 L 2.990240 80.017507 L 2.618740 78.495307 L 2.284340 76.958907 L 1.987340 75.408907 L 1.728340 73.845807 L 1.507840 72.269907 L 1.326340 70.682007 L 1.184240 69.082307 L 1.082240 67.471507 L 1.020640 65.849907 L 0.999940 64.218307 L 1.020640 62.586607 L 1.082240 60.965007 L 1.184240 59.354207 L 1.326340 57.754507 L 1.507840 56.166607 L 1.728340 54.590707 L 1.987340 53.027607 L 2.284340 51.477607 L 2.618740 49.941207 L 2.990240 48.419007 L 3.398140 46.911507 L 3.842140 45.419107 L 4.321540 43.942307 L 4.836040 42.481707 L 5.384940 41.037707 L 5.967940 39.610807 L 6.584440 38.201607 L 7.233940 36.810507 L 8.630040 34.084707 L 10.152240 31.437307 L 11.796640 28.872307 L 13.559140 26.393707 L 15.435940 24.005507 L 17.422940 21.711707 L 19.516140 19.516207 L 21.711740 17.422907 L 24.005540 15.435907 L 26.393740 13.559207 L 28.872340 11.796607 L 31.437240 10.152307 L 34.084640 8.630107 L 36.810540 7.234007 L 38.201640 6.584407 L 39.610840 5.968007 L 41.037740 5.385007 L 42.481640 4.836007 L 43.942340 4.321607 L 45.419040 3.842107 L 46.911440 3.398207 L 48.419040 2.990207 L 49.941240 2.618807 L 51.477540 2.284307 L 53.027540 1.987307 L 54.590740 1.728407 L 56.166540 1.507907 L 57.754540 1.326307 L 59.354240 1.184307 L 60.965040 1.082207 L 62.586540 1.020607 L 64.218240 0.999907 Z M 126.449140 53.027607 L 126.708140 54.590707 L 126.928640 56.166607 L 126.953040 56.379807 L 126.904840 56.231807 L 126.700540 55.480407 L 126.528040 54.699507 L 126.388140 53.887807 L 126.281040 53.039907 L 126.208540 52.156307 L 126.188940 51.669207 Z" transform="scale(1.000000,1.000000) translate(6.748260,10.781693)" fill="#19773f" opacity="1.000000"></path>
        <path d="M 57.738891 1.070159 L 60.479291 1.278559 L 63.179891 1.621759 L 65.837291 2.096259 L 68.447991 2.698859 L 71.008691 3.425959 L 73.515991 4.274359 L 75.966491 5.240559 L 78.356791 6.321159 L 80.683491 7.512859 L 82.178091 8.372259 L 79.922291 8.372259 L 79.922291 9.381959 L 79.730191 9.271459 L 77.489691 8.123959 L 75.187991 7.083359 L 72.828291 6.152959 L 70.413891 5.336059 L 67.948091 4.635859 L 65.434191 4.055659 L 62.875291 3.598659 L 60.274791 3.268259 L 57.635991 3.067559 L 54.961991 2.999959 L 52.288091 3.067559 L 49.649191 3.268259 L 47.048691 3.598659 L 44.489891 4.055659 L 41.975891 4.635859 L 39.510091 5.336059 L 37.095691 6.152959 L 34.735991 7.083359 L 32.434291 8.123959 L 30.193791 9.271459 L 28.017791 10.522659 L 25.909491 11.874259 L 23.872291 13.322959 L 21.909291 14.865559 L 20.023891 16.498759 L 18.219291 18.219259 L 16.498791 20.023859 L 14.865591 21.909359 L 13.322991 23.872259 L 11.874291 25.909559 L 10.522691 28.017759 L 9.271491 30.193759 L 8.123991 32.434259 L 7.083391 34.736059 L 6.152991 37.095759 L 5.336091 39.510059 L 4.635891 41.975859 L 4.055591 44.489859 L 3.598691 47.048659 L 3.268191 49.649159 L 3.067591 52.288059 L 2.999991 54.962059 L 3.067591 57.635959 L 3.268191 60.274859 L 3.598691 62.875359 L 4.055591 65.434159 L 4.635891 67.948159 L 5.336091 70.413959 L 6.152991 72.828259 L 7.083391 75.187959 L 8.123991 77.489759 L 9.271491 79.730259 L 10.522691 81.906259 L 11.874291 84.014459 L 13.322991 86.051759 L 14.865591 88.014659 L 16.498791 89.900159 L 18.219291 91.704759 L 20.023891 93.425259 L 21.909291 95.058459 L 23.872291 96.601059 L 25.909491 98.049759 L 28.017791 99.401359 L 30.193791 100.652559 L 32.434291 101.800059 L 34.735991 102.840659 L 37.095691 103.771059 L 39.510091 104.587959 L 41.975891 105.288159 L 44.489891 105.868359 L 47.048691 106.325359 L 49.649191 106.655759 L 52.288091 106.856459 L 54.961991 106.924059 L 57.635991 106.856459 L 60.274791 106.655759 L 62.875291 106.325359 L 65.434191 105.868359 L 67.948091 105.288159 L 70.413891 104.587959 L 72.828291 103.771059 L 75.187991 102.840659 L 77.489691 101.800059 L 79.730191 100.652559 L 79.922291 100.542059 L 79.922291 101.551659 L 82.178291 101.551659 L 80.683491 102.411159 L 78.356791 103.602859 L 75.966491 104.683459 L 73.515991 105.649659 L 71.008691 106.498059 L 68.447991 107.225159 L 65.837291 107.827759 L 63.179891 108.302259 L 60.479291 108.645459 L 57.738891 108.853859 L 54.961991 108.924059 L 52.185091 108.853859 L 49.444691 108.645459 L 46.744091 108.302259 L 44.086791 107.827759 L 41.476091 107.225159 L 38.915391 106.498059 L 36.408091 105.649659 L 33.957491 104.683459 L 31.567191 103.602859 L 29.240491 102.411159 L 26.980691 101.111759 L 24.791291 99.708159 L 22.675691 98.203759 L 20.637091 96.601759 L 18.679091 94.905659 L 16.805091 93.118959 L 15.018291 91.244859 L 13.322291 89.286859 L 11.720291 87.248359 L 10.215791 85.132759 L 8.812191 82.943259 L 7.512891 80.683559 L 6.321191 78.356759 L 5.240591 75.966459 L 4.274391 73.515959 L 3.425991 71.008659 L 2.698791 68.447959 L 2.096291 65.837259 L 1.621691 63.179859 L 1.278591 60.479359 L 1.070191 57.738859 L 0.999991 54.962059 L 1.070191 52.185159 L 1.278591 49.444659 L 1.621691 46.744159 L 2.096291 44.086759 L 2.698791 41.476059 L 3.425991 38.915359 L 4.274391 36.408059 L 5.240591 33.957559 L 6.321191 31.567259 L 7.512891 29.240459 L 8.812191 26.980759 L 10.215791 24.791259 L 11.720291 22.675659 L 13.322291 20.637159 L 15.018291 18.679159 L 16.805091 16.805059 L 18.679091 15.018359 L 20.637091 13.322259 L 22.675691 11.720259 L 24.791291 10.215859 L 26.980691 8.812259 L 29.240491 7.512859 L 31.567191 6.321159 L 33.957491 5.240559 L 36.408091 4.274359 L 38.915391 3.425959 L 41.476091 2.698859 L 44.086791 2.096259 L 46.744091 1.621759 L 49.444691 1.278559 L 52.185091 1.070159 L 54.961991 0.999959 Z M 106.599791 63.326559 L 107.670991 64.536559 L 107.998591 64.880859 L 107.827791 65.837259 L 107.225191 68.447959 L 106.497991 71.008659 L 105.649691 73.515959 L 104.683491 75.966459 L 103.602791 78.356759 L 102.411091 80.683559 L 101.111791 82.943259 L 99.708191 85.132759 L 98.203691 87.248359 L 97.675091 87.921059 L 97.675091 84.541359 L 98.049791 84.014459 L 99.401391 81.906259 L 100.652491 79.730259 L 101.800091 77.489759 L 102.840591 75.187959 L 103.770991 72.828259 L 104.587991 70.413959 L 105.288191 67.948159 L 105.868391 65.434159 L 106.309491 62.964359 Z M 98.203691 22.675659 L 99.708191 24.791259 L 101.111791 26.980759 L 101.464591 27.594359 L 100.947291 28.903759 L 100.563791 30.039459 L 99.401391 28.017759 L 98.049791 25.909559 L 97.675091 25.382659 L 97.675091 22.002959 Z" transform="scale(1.000000,1.000000) translate(16.004509,20.037941)" fill="#19773f" opacity="1.000000"></path>
    </g>
</svg>