<svg width="192" height="445" version="1.1" xmlns="http://www.w3.org/2000/svg"><defs><linearGradient x1="13.445%" y1="15.3%" x2="86.18%" y2="84.367%" id="linearGradient-1"><stop stop-color="#174BC9" offset="0%"/><stop stop-color="#0034B4" offset="100%"/></linearGradient></defs><g id="Page-1" stroke="none" stroke-width="1" fill="none" fill-rule="evenodd"><g id="Frontpage" transform="translate(-1088 -1010)"><g id="newwayimg" transform="translate(1086.5 1009)"><g id="Group-6" transform="translate(.5)"><path d="M74.284 275v-21a2 2 0 0 1 2-2h13a2 2 0 0 1 2 2v21h20a2 2 0 0 1 0 4h-57a2 2 0 0 1 0-4h20z" id="Combined-Shape" fill="#E2E4EA"/><rect id="Rectangle-4" fill="#E2E4EA" x="29.284" y="192.5" width="107" height="66.79" rx="6"/><path id="Rectangle-11" fill="#FFF" d="M34.284 198h97v52h-97z"/><path d="M93.67 235.515c.112-.138.227-.276.345-.413 1.549-1.792 3.57-3.368 6.066-4.88a56.161 56.161 0 0 1 3.345-1.859v6.429c-4.047 1.426-6.925 5.336-6.925 8.017h-5.663c.006-2.669-2.22-5.233-6.474-7.811a50.824 50.824 0 0 0-3.09-1.712l-.073.037a50.824 50.824 0 0 0-3.018 1.675c-4.254 2.578-6.48 5.142-6.474 7.811h-5.585c-.004-2.832 1.108-5.404 3.099-7.707 1.549-1.792 3.569-3.368 6.066-4.88.118-.073.237-.144.357-.215-3.601-2.847-5.902-6.875-6.224-11.495-.066-.948-.053-1.62.05-2.638.135-1.357.456-2.663.953-3.88 1.84-4.508 5.904-7.406 10.802-7.443a1.8 1.8 0 0 1 .093 0c4.898.037 8.962 2.935 10.802 7.443a13.93 13.93 0 0 1 .954 3.88c.102 1.018.115 1.69.049 2.638-.322 4.62-2.622 8.648-6.224 11.495l.358.214c2.496 1.513 4.517 3.09 6.065 4.881.119.137.234.275.346.413zm-12.396-8.498l.027-.014c3.666-1.911 5.99-5.119 6.252-8.879.044-.625.037-.982-.035-1.695a8.35 8.35 0 0 0-.567-2.325c-1.008-2.468-3.085-3.95-5.677-3.968-2.593.018-4.67 1.5-5.678 3.968a8.35 8.35 0 0 0-.567 2.325c-.072.713-.079 1.07-.035 1.695.262 3.76 2.586 6.968 6.252 8.879l.028.014z" id="Combined-Shape" fill="url(#linearGradient-1)"/><g id="noun_1379172_cc" transform="translate(43.784 365)" fill="url(#linearGradient-1)" fill-rule="nonzero"><path d="M40 .201c-22.091 0-40 17.909-40 40 0 22.092 17.909 40 40 40s40-17.908 40-40c-.025-22.08-17.919-39.975-40-40zm30.676 23.925H58.97c-1.456-6.573-3.787-12.19-6.716-16.325a34.83 34.83 0 0 1 18.423 16.325zM5.358 40.201c0-3.64.576-7.256 1.706-10.716h13.012a79.428 79.428 0 0 0 0 21.433H7.064a34.499 34.499 0 0 1-1.706-10.717zm19.353 0c.02-3.59.319-7.173.893-10.716H37.32v21.433H25.559a69.533 69.533 0 0 1-.848-10.717zm28.685-16.075H42.679V6.122c4.778 2.01 8.565 9.234 10.717 18.004zM37.32 6.122v18.004H26.604c2.152-8.77 5.939-15.994 10.717-18.004zm0 50.154V74.28c-4.778-2.009-8.565-9.234-10.717-18.004H37.32zm5.358 18.004V56.276h10.717c-2.152 8.77-5.939 15.995-10.717 18.004zm0-23.362V29.485H54.44c.574 3.543.872 7.126.893 10.716-.02 3.59-.32 7.173-.893 10.717H42.679zm17.245-21.433h13.012a34.543 34.543 0 0 1 0 21.433H59.924c.486-3.551.728-7.132.723-10.717a78.259 78.259 0 0 0-.723-10.716zM27.774 7.8c-2.956 4.135-5.287 9.752-6.743 16.325H9.324A34.83 34.83 0 0 1 27.747 7.801h.027zM9.324 56.276H21.03c1.456 6.573 3.778 12.19 6.716 16.325A34.83 34.83 0 0 1 9.324 56.276zm42.929 16.325c2.929-4.134 5.26-9.752 6.716-16.325h11.707a34.83 34.83 0 0 1-18.423 16.325z" id="Shape"/></g><path d="M83.784 126.5v60.075m0 169.007v-71.07" id="Line-2" stroke="#C1C5CF" stroke-width="2" stroke-linecap="round"/><g id="Group-8" transform="translate(21)"><g id="Group-5" transform="translate(49.284 42)"><circle id="Oval-6" fill="url(#linearGradient-1)" cx="30.633" cy="19.621" r="18.633"/><circle id="Oval-7" fill="#FFF" cx="24.716" cy="16" r="2"/><circle id="Oval-7" fill="#FFF" cx="34.716" cy="16" r="2"/><path d="M38.073 23.496c-.734 2.76-2.98 4.647-6.74 5.66-3.759 1.012-6.86-.38-9.306-4.175" id="Line-3" stroke="#FFF" stroke-width="2" stroke-linecap="round"/><path d="M30.633 41.022c16.723 0 30.28 13.556 30.28 30.279v5.677H.352v-5.677c0-16.723 13.557-30.28 30.28-30.28z" id="Rectangle-10" fill="url(#linearGradient-1)"/></g><path d="M5.784 112h76.5v7h-76.5a3.5 3.5 0 1 1 0-7z" id="Rectangle-4" fill="#E2E4EA"/><path d="M6.284 74h52a4 4 0 0 1 4 4v37a4 4 0 0 1-4 4h-52a4 4 0 0 1-4-4V78a4 4 0 0 1 4-4z" id="Rectangle-4" fill="#E2E4EA"/><circle id="Oval-9" fill="#E2E4EA" cx="32.599" cy="26.675" r="4.475"/><circle id="Oval-9" fill="#E2E4EA" cx="105.806" cy="32.247" r="1.997"/><circle id="Oval-9" stroke="#FF8500" stroke-width="3" cx="135.546" cy="72.525" r="4.475"/><circle id="Oval-10" fill="#FF8500" cx="2.5" cy="56.5" r="2.5"/><path d="M82.256 3.736c-1.977 2.06-1.975 5.373 0 7.434l8.749 9.133 8.759-9.123c1.977-2.059 1.977-5.374 0-7.433s-5.16-2.06-7.137 0l-1.612 1.679-1.622-1.69c-1.977-2.059-5.16-2.059-7.137 0z" id="Shape" fill="#FF8500" fill-rule="nonzero" transform="rotate(10 91.01 11.247)"/><path d="M65.407 27.668a2.62 2.62 0 0 0 0 3.607l4.245 4.432 4.25-4.427c.96-.999.96-2.607 0-3.606-.959-1-2.504-1-3.463 0l-.782.814-.787-.82a2.375 2.375 0 0 0-3.463 0z" id="Shape" fill="#FF8500" fill-rule="nonzero" transform="rotate(-20 69.655 31.313)"/></g><g id="small_user_icon_orange" transform="translate(69.5 301.582)"><g id="Group-8"><circle id="Oval-11" fill="#FF8500" cx="14.127" cy="14.127" r="14.127"/><g id="Group-5" transform="translate(7.627 5.705)" fill="#FFF"><circle id="Oval-6" cx="6.232" cy="3.992" r="3.791"/><path d="M6.232 8.345a6.16 6.16 0 0 1 6.16 6.16v1.155H.072v-1.155a6.16 6.16 0 0 1 6.16-6.16z" id="Rectangle-10"/></g></g></g><path d="M110.98 365.527c11.551-10.032 15.801-23.37 12.75-40.01-3.05-16.64-12.234-29.977-27.552-40.01" id="Line-2" stroke="#C1C5CF" stroke-width="2" stroke-linecap="round"/><path d="M127.758 393.55c20.213-15.382 28.849-34.45 25.906-57.202-2.943-22.753-16.69-39.366-41.242-49.84" id="Line-2" stroke="#C1C5CF" stroke-width="2" stroke-linecap="round"/><g id="small_user_icon_orange" transform="translate(107.5 309.582)"><g id="Group-8"><circle id="Oval-11" fill="#FF8500" cx="14.127" cy="14.127" r="14.127"/><g id="Group-5" transform="translate(7.627 5.705)" fill="#FFF"><circle id="Oval-6" cx="6.232" cy="3.992" r="3.791"/><path d="M6.232 8.345a6.16 6.16 0 0 1 6.16 6.16v1.155H.072v-1.155a6.16 6.16 0 0 1 6.16-6.16z" id="Rectangle-10"/></g></g></g><g id="small_user_icon_orange" transform="translate(137.5 347.582)"><g id="Group-8"><circle id="Oval-11" fill="#FF8500" cx="14.127" cy="14.127" r="14.127"/><g id="Group-5" transform="translate(7.627 5.705)" fill="#FFF"><circle id="Oval-6" cx="6.232" cy="3.992" r="3.791"/><path d="M6.232 8.345a6.16 6.16 0 0 1 6.16 6.16v1.155H.072v-1.155a6.16 6.16 0 0 1 6.16-6.16z" id="Rectangle-10"/></g></g></g><path d="M56.02 365.527c-11.551-10.032-15.801-23.37-12.75-40.01 3.05-16.64 12.234-29.977 27.552-40.01" id="Line-2" stroke="#C1C5CF" stroke-width="2" stroke-linecap="round"/><path d="M39.242 393.55c-20.213-15.382-28.849-34.45-25.906-57.202 2.943-22.753 16.69-39.366 41.242-49.84" id="Line-2" stroke="#C1C5CF" stroke-width="2" stroke-linecap="round"/><g id="small_user_icon_orange" transform="matrix(-1 0 0 1 59.5 309.582)"><g id="Group-8"><circle id="Oval-11" fill="#FF8500" cx="14.127" cy="14.127" r="14.127"/><g id="Group-5" transform="translate(7.627 5.705)" fill="#FFF"><circle id="Oval-6" cx="6.232" cy="3.992" r="3.791"/><path d="M6.232 8.345a6.16 6.16 0 0 1 6.16 6.16v1.155H.072v-1.155a6.16 6.16 0 0 1 6.16-6.16z" id="Rectangle-10"/></g></g></g><g id="small_user_icon_orange" transform="matrix(-1 0 0 1 29.5 347.582)"><g id="Group-8"><circle id="Oval-11" fill="#FF8500" cx="14.127" cy="14.127" r="14.127"/><g id="Group-5" transform="translate(7.627 5.705)" fill="#FFF"><circle id="Oval-6" cx="6.232" cy="3.992" r="3.791"/><path d="M6.232 8.345a6.16 6.16 0 0 1 6.16 6.16v1.155H.072v-1.155a6.16 6.16 0 0 1 6.16-6.16z" id="Rectangle-10"/></g></g></g><text id="+" font-family="Rubik-Medium, Rubik" font-size="33" font-weight="400" fill="#FF8500"><tspan x="173" y="389.582">+</tspan></text></g></g></g></g></svg>