<svg width="386" height="434" version="1.1" xmlns="http://www.w3.org/2000/svg"><defs><linearGradient x1="13.445%" y1="15.3%" x2="86.18%" y2="84.367%" id="linearGradient-1"><stop stop-color="#174BC9" offset="0%"/><stop stop-color="#0034B4" offset="100%"/></linearGradient></defs><g id="Page-1" stroke="none" stroke-width="1" fill="none" fill-rule="evenodd"><g id="Frontpage" transform="translate(-223 -1021)"><g id="oldwayimg" transform="translate(223 1019)"><g id="Group-10" transform="translate(.693)"><path d="M323 265v-21a2 2 0 0 1 2-2h13a2 2 0 0 1 2 2v21h20a2 2 0 0 1 0 4h-57a2 2 0 0 1 0-4h20zm-139 0v-21a2 2 0 0 1 2-2h13a2 2 0 0 1 2 2v21h20a2 2 0 0 1 0 4h-57a2 2 0 0 1 0-4h20zm-139 0v-21a2 2 0 0 1 2-2h13a2 2 0 0 1 2 2v21h20a2 2 0 0 1 0 4H25a2 2 0 0 1 0-4h20z" id="Combined-Shape" fill="#E2E4EA"/><rect id="Rectangle-4" fill="#E2E4EA" x="0" y="182.5" width="107" height="66.79" rx="6"/><path id="Rectangle-11" fill="#FFF" d="M5 187h97v52H5z"/><rect id="Rectangle-4" fill="#E2E4EA" x="139" y="182.5" width="107" height="66.79" rx="6"/><rect id="Rectangle-4" fill="#E2E4EA" x="278" y="182.5" width="107" height="66.79" rx="6"/><path id="Rectangle-11" fill="#FFF" d="M144 187h97v52h-97zm139 0h97v52h-97z"/><g id="noun_1379172_cc" transform="translate(152.5 355)" fill="url(#linearGradient-1)" fill-rule="nonzero"><path d="M40 .201c-22.091 0-40 17.909-40 40 0 22.092 17.909 40 40 40s40-17.908 40-40c-.025-22.08-17.919-39.975-40-40zm30.676 23.925H58.97c-1.456-6.573-3.787-12.19-6.716-16.325a34.83 34.83 0 0 1 18.423 16.325zM5.358 40.201c0-3.64.576-7.256 1.706-10.716h13.012a79.428 79.428 0 0 0 0 21.433H7.064a34.499 34.499 0 0 1-1.706-10.717zm19.353 0c.02-3.59.319-7.173.893-10.716H37.32v21.433H25.559a69.533 69.533 0 0 1-.848-10.717zm28.685-16.075H42.679V6.122c4.778 2.01 8.565 9.234 10.717 18.004zM37.32 6.122v18.004H26.604c2.152-8.77 5.939-15.994 10.717-18.004zm0 50.154V74.28c-4.778-2.009-8.565-9.234-10.717-18.004H37.32zm5.358 18.004V56.276h10.717c-2.152 8.77-5.939 15.995-10.717 18.004zm0-23.362V29.485H54.44c.574 3.543.872 7.126.893 10.716-.02 3.59-.32 7.173-.893 10.717H42.679zm17.245-21.433h13.012a34.543 34.543 0 0 1 0 21.433H59.924c.486-3.551.728-7.132.723-10.717a78.259 78.259 0 0 0-.723-10.716zM27.774 7.8c-2.956 4.135-5.287 9.752-6.743 16.325H9.324A34.83 34.83 0 0 1 27.747 7.801h.027zM9.324 56.276H21.03c1.456 6.573 3.778 12.19 6.716 16.325A34.83 34.83 0 0 1 9.324 56.276zm42.929 16.325c2.929-4.134 5.26-9.752 6.716-16.325h11.707a34.83 34.83 0 0 1-18.423 16.325z" id="Shape"/></g><path d="M55.5 175.918c-.184-66.066 124.672-28.82 125-65.418m151.018 65.418c.183-66.066-124.672-28.82-125-65.418" id="Line" stroke="#C1C5CF" stroke-width="2" stroke-linecap="round"/><path d="M193.5 110.5v60.075" id="Line-2" stroke="#C1C5CF" stroke-width="2" stroke-linecap="round"/><path d="M53.5 280.582c-.184 66.066 126.672 28.82 127 65.418m151.018-65.418c.183 66.066-124.672 28.82-125 65.418" id="Line" stroke="#C1C5CF" stroke-width="2" stroke-linecap="round"/><g id="small_user_icon_orange" transform="translate(269 306)"><g id="Group-8"><circle id="Oval-11" fill="#FF8500" cx="14.127" cy="14.127" r="14.127"/><g id="Group-5" transform="translate(7.627 5.705)" fill="#FFF"><circle id="Oval-6" cx="6.232" cy="3.992" r="3.791"/><path d="M6.232 8.345a6.16 6.16 0 0 1 6.16 6.16v1.155H.072v-1.155a6.16 6.16 0 0 1 6.16-6.16z" id="Rectangle-10"/></g></g></g><path d="M193.5 345.582v-72.07" id="Line-2" stroke="#C1C5CF" stroke-width="2" stroke-linecap="round"/><g id="Group-7" transform="translate(128)"><g id="Group-5" transform="translate(52 27)"><circle id="Oval-6" fill="url(#linearGradient-1)" cx="30.633" cy="19.621" r="18.633"/><circle id="Oval-7" fill="#FFF" cx="20" cy="18" r="2"/><circle id="Oval-7" fill="#FFF" cx="30" cy="16" r="2"/><path d="M21.32 28.996c1.451-1.449 3.39-2.475 5.816-3.08 2.425-.605 4.604-.605 6.534 0" id="Line-3" stroke="#FFF" stroke-width="2" stroke-linecap="round"/><path d="M30.633 41.022c16.723 0 30.28 13.556 30.28 30.279v5.677H.352v-5.677c0-16.723 13.557-30.28 30.28-30.28z" id="Rectangle-10" fill="url(#linearGradient-1)"/></g><path d="M91.5 41a2.5 2.5 0 0 0 2.5-2.5c0-.92-.833-2.754-2.5-5.5-1.667 2.746-2.5 4.58-2.5 5.5a2.5 2.5 0 0 0 2.5 2.5zm5 9a2.5 2.5 0 0 0 2.5-2.5c0-.92-.833-2.754-2.5-5.5-1.667 2.746-2.5 4.58-2.5 5.5a2.5 2.5 0 0 0 2.5 2.5z" id="Oval-8" fill="#F2F6FF"/><path d="M8.5 97H85v7H8.5a3.5 3.5 0 0 1 0-7z" id="Rectangle-4" fill="#E2E4EA"/><path d="M9 59h52a4 4 0 0 1 4 4v37a4 4 0 0 1-4 4H9a4 4 0 0 1-4-4V63a4 4 0 0 1 4-4z" id="Rectangle-4" fill="#E2E4EA"/><path d="M36.96 15.73c0 .86-.155 1.625-.465 2.295-.31.67-.685 1.23-1.125 1.68-.44.45-1.01.975-1.71 1.575-.72.6-1.255 1.1-1.605 1.5-.35.4-.565.85-.645 1.35-.04.24-.13.435-.27.585a.706.706 0 0 1-.54.225h-2.28a.83.83 0 0 1-.585-.24.667.667 0 0 1-.225-.57c.04-.82.225-1.56.555-2.22.33-.66.72-1.215 1.17-1.665.45-.45 1.025-.965 1.725-1.545.72-.58 1.25-1.07 1.59-1.47.34-.4.51-.84.51-1.32 0-.76-.325-1.385-.975-1.875-.65-.49-1.495-.735-2.535-.735-.82 0-1.55.22-2.19.66-.64.44-1.16 1.07-1.56 1.89-.12.24-.235.41-.345.51-.11.1-.285.15-.525.15H22.5a.662.662 0 0 1-.465-.18.622.622 0 0 1-.195-.48c.04-.94.41-1.89 1.11-2.85.7-.96 1.64-1.75 2.82-2.37 1.18-.62 2.44-.93 3.78-.93 1.28 0 2.485.235 3.615.705 1.13.47 2.045 1.165 2.745 2.085.7.92 1.05 2 1.05 3.24zm-6.21 11.01c.22 0 .41.08.57.24.16.16.24.35.24.57v2.64c0 .22-.08.41-.24.57-.16.16-.35.24-.57.24h-2.58c-.22 0-.41-.08-.57-.24a.779.779 0 0 1-.24-.57v-2.64c0-.22.08-.41.24-.57.16-.16.35-.24.57-.24h2.58z" id="?" fill="#E2E4EA" transform="rotate(-18 29.4 20.35)"/><path d="M50 42.93c0 .22-.08.41-.24.57-.16.16-.35.24-.57.24h-2.28c-.22 0-.41-.08-.57-.24a.779.779 0 0 1-.24-.57V29.61c0-.22.08-.41.24-.57.16-.16.35-.24.57-.24h2.28c.22 0 .41.08.57.24.16.16.24.35.24.57v13.32zm-.66 2.61c.22 0 .41.08.57.24.16.16.24.35.24.57v2.64c0 .22-.08.41-.24.57-.16.16-.35.24-.57.24h-2.58c-.22 0-.41-.08-.57-.24a.779.779 0 0 1-.24-.57v-2.64c0-.22.08-.41.24-.57.16-.16.35-.24.57-.24h2.58z" id="!" fill="#C1C5CF" transform="rotate(-5 48.05 39.3)"/><path d="M119 66.43c0 .22-.08.41-.24.57-.16.16-.35.24-.57.24h-2.28c-.22 0-.41-.08-.57-.24a.779.779 0 0 1-.24-.57V53.11c0-.22.08-.41.24-.57.16-.16.35-.24.57-.24h2.28c.22 0 .41.08.57.24.16.16.24.35.24.57v13.32zm-.66 2.61c.22 0 .41.08.57.24.16.16.24.35.24.57v2.64c0 .22-.08.41-.24.57-.16.16-.35.24-.57.24h-2.58c-.22 0-.41-.08-.57-.24a.779.779 0 0 1-.24-.57v-2.64c0-.22.08-.41.24-.57.16-.16.35-.24.57-.24h2.58z" id="!" fill="#C1C5CF" transform="rotate(20 117.05 62.8)"/><path d="M116.236 6.747c0 .659-.119 1.245-.357 1.76a4.56 4.56 0 0 1-.862 1.287 20.81 20.81 0 0 1-1.311 1.208c-.552.46-.962.843-1.23 1.15a2.036 2.036 0 0 0-.495 1.035.842.842 0 0 1-.207.448.54.54 0 0 1-.414.173h-1.748a.636.636 0 0 1-.448-.184.511.511 0 0 1-.173-.437c.03-.63.172-1.196.425-1.702.254-.506.552-.932.898-1.277.345-.345.785-.74 1.322-1.184.552-.445.958-.82 1.219-1.127.26-.307.391-.644.391-1.012 0-.583-.25-1.062-.747-1.438-.499-.376-1.147-.563-1.944-.563-.629 0-1.188.168-1.679.506-.49.337-.89.82-1.196 1.449a1.33 1.33 0 0 1-.265.39c-.084.077-.218.116-.402.116h-1.863a.508.508 0 0 1-.357-.138.477.477 0 0 1-.149-.368c.03-.721.314-1.45.851-2.185.537-.736 1.257-1.342 2.162-1.817a6.14 6.14 0 0 1 2.898-.713c.981 0 1.905.18 2.771.54.867.36 1.568.893 2.105 1.599.537.705.805 1.533.805 2.484zm-4.761 8.44c.169 0 .314.062.437.185a.597.597 0 0 1 .184.437v2.024a.597.597 0 0 1-.184.437.597.597 0 0 1-.437.184h-1.978a.597.597 0 0 1-.437-.184.597.597 0 0 1-.184-.437v-2.024c0-.17.061-.315.184-.437a.597.597 0 0 1 .437-.184h1.978z" id="?" fill="#E2E4EA" transform="rotate(20 110.44 10.289)"/><path d="M69.78 23.2a.847.847 0 0 1-.255.45.701.701 0 0 1-.495.18h-2.37a.635.635 0 0 1-.465-.195.635.635 0 0 1-.195-.465v-.06l.45-2.97h-3.03l-.45 3.06a.847.847 0 0 1-.255.45.701.701 0 0 1-.495.18h-2.37a.635.635 0 0 1-.465-.195.635.635 0 0 1-.195-.465v-.06l.45-2.97h-2.01c-.22 0-.41-.08-.57-.24a.779.779 0 0 1-.24-.57v-1.89c0-.22.08-.41.24-.57.16-.16.35-.24.57-.24h2.52l.63-4.11h-2.37c-.22 0-.41-.08-.57-.24a.779.779 0 0 1-.24-.57V9.82c0-.22.08-.41.24-.57.16-.16.35-.24.57-.24h2.88l.48-3.03c.04-.18.125-.33.255-.45s.285-.18.465-.18h2.4c.18 0 .335.065.465.195s.195.285.195.465v.09l-.45 2.91h3l.48-3.03c.04-.18.125-.33.255-.45s.285-.18.465-.18h2.4c.18 0 .335.065.465.195s.195.285.195.465v.09l-.45 2.91h2.01c.22 0 .41.08.57.24.16.16.24.35.24.57v1.89c0 .22-.08.41-.24.57-.16.16-.35.24-.57.24h-2.55l-.6 4.11h2.37c.22 0 .41.08.57.24.16.16.24.35.24.57v1.89c0 .22-.08.41-.24.57-.16.16-.35.24-.57.24h-2.91l-.45 3.06zm-2.82-6.57l.63-4.11h-3.03l-.6 4.11h3zM9.996 43.94a.593.593 0 0 1-.178.315.49.49 0 0 1-.347.126H7.812a.444.444 0 0 1-.325-.136.444.444 0 0 1-.137-.326v-.042l.315-2.079H5.544l-.315 2.142a.593.593 0 0 1-.178.315.49.49 0 0 1-.347.126H3.045a.444.444 0 0 1-.325-.136.444.444 0 0 1-.137-.326v-.042l.315-2.079H1.491a.545.545 0 0 1-.399-.168.545.545 0 0 1-.168-.399v-1.323c0-.154.056-.287.168-.399a.545.545 0 0 1 .399-.168h1.764l.441-2.877H2.037a.545.545 0 0 1-.399-.168.545.545 0 0 1-.168-.399v-1.323c0-.154.056-.287.168-.399a.545.545 0 0 1 .399-.168h2.016l.336-2.121a.593.593 0 0 1 .178-.315.463.463 0 0 1 .326-.126h1.68c.126 0 .234.045.325.136.092.092.137.2.137.326v.063l-.315 2.037h2.1l.336-2.121a.593.593 0 0 1 .178-.315.463.463 0 0 1 .326-.126h1.68c.126 0 .234.045.325.136.092.092.137.2.137.326v.063l-.315 2.037h1.407c.154 0 .287.056.399.168a.545.545 0 0 1 .168.399v1.323a.545.545 0 0 1-.168.399.545.545 0 0 1-.399.168h-1.785l-.42 2.877h1.659c.154 0 .287.056.399.168a.545.545 0 0 1 .168.399v1.323a.545.545 0 0 1-.168.399.545.545 0 0 1-.399.168h-2.037l-.315 2.142zm-1.974-4.599l.441-2.877H6.342l-.42 2.877h2.1z" id="#" fill="#C1C5CF"/></g><g id="small_user_icon_orange" transform="translate(179.5 291)"><g id="Group-8"><circle id="Oval-11" fill="#FF8500" cx="14.127" cy="14.127" r="14.127"/><g id="Group-5" transform="translate(7.627 5.705)" fill="#FFF"><circle id="Oval-6" cx="6.232" cy="3.992" r="3.791"/><path d="M6.232 8.345a6.16 6.16 0 0 1 6.16 6.16v1.155H.072v-1.155a6.16 6.16 0 0 1 6.16-6.16z" id="Rectangle-10"/></g></g></g><g id="small_user_icon_orange" transform="translate(90.5 305.5)"><g id="Group-8"><circle id="Oval-11" fill="#FF8500" cx="14.127" cy="14.127" r="14.127"/><g id="Group-5" transform="translate(7.627 5.705)" fill="#FFF"><circle id="Oval-6" cx="6.232" cy="3.992" r="3.791"/><path d="M6.232 8.345a6.16 6.16 0 0 1 6.16 6.16v1.155H.072v-1.155a6.16 6.16 0 0 1 6.16-6.16z" id="Rectangle-10"/></g></g></g></g></g></g></g></svg>